# Blender v2.93.0 OBJ File: 'cobkilnbase.blend'
# www.blender.org
mtllib kiln_base.mtl
o Cube
v 0.000000 1.000000 0.750000
v 0.000000 0.000000 1.000000
v 0.000000 1.000000 0.250000
v -0.000000 0.000000 0.000000
v 1.000000 1.000000 0.750000
v 1.000000 0.000000 1.000000
v 1.000000 1.000000 0.250000
v 1.000000 0.000000 -0.000000
v 0.000000 0.000000 1.000000
v -0.000000 0.000000 0.000000
v 1.000000 0.000000 1.000000
v 1.000000 0.000000 -0.000000
v 0.850000 0.000000 0.850000
v 0.850000 0.000000 0.150000
v 0.150000 0.000000 0.150000
v 0.150000 0.000000 0.850000
v 0.850000 0.850000 0.625000
v 0.850000 0.850000 0.375000
v 0.150000 0.850000 0.375000
v 0.150000 0.850000 0.625000
v 0.850000 0.000000 0.700000
v 0.850000 0.000000 0.300000
v 1.000000 0.000000 0.700000
v 1.000000 0.000000 0.300000
v 0.850000 0.400000 0.700000
v 0.850000 0.400000 0.300000
v 1.000000 0.400000 0.700000
v 1.000000 0.400000 0.300000
v 0.750000 1.000000 0.750000
v 0.750000 1.000000 0.250000
v 0.250000 1.000000 0.750000
v 0.250000 1.000000 0.250000
v 0.375000 0.850000 0.375000
v 0.375000 0.850000 0.625000
v 0.625000 0.850000 0.375000
v 0.625000 0.850000 0.625000
v 0.625000 1.000000 0.375000
v 0.375000 1.000000 0.375000
v 0.375000 1.000000 0.625000
v 0.625000 1.000000 0.625000
v 1.000000 0.000000 1.000000
v 1.000000 0.000000 -0.000000
vt 0.250000 0.250000
vt 0.000000 0.750000
vt 0.000000 0.250000
vt 1.000000 0.750000
vt 1.000000 1.000000
vt 0.000000 1.000000
vt 0.150000 0.375000
vt 0.375000 0.625000
vt 0.150000 0.625000
vt 1.000000 0.750000
vt 0.000000 0.000000
vt 0.000000 1.000000
vt 1.000000 0.750000
vt 1.000000 1.000000
vt 0.000000 0.150000
vt 0.850000 0.625000
vt 0.000000 0.850000
vt 0.000000 0.700000
vt 0.150000 0.850000
vt 0.000000 1.000000
vt 0.850000 0.850000
vt 1.000000 1.000000
vt 0.850000 0.150000
vt 1.000000 0.000000
vt 0.150000 0.150000
vt 0.000000 0.000000
vt 0.375000 0.375000
vt 0.150000 0.625000
vt 0.375000 0.625000
vt 1.000000 0.750000
vt 1.000000 0.250000
vt 0.400000 0.700000
vt 0.000000 0.150000
vt 0.850000 0.375000
vt 0.850000 0.625000
vt 0.000000 0.850000
vt 0.850000 0.625000
vt 0.850000 0.375000
vt 0.000000 0.300000
vt 0.150000 0.700000
vt 0.150000 0.300000
vt 0.000000 0.300000
vt 0.150000 0.300000
vt 0.000000 0.700000
vt 0.150000 0.300000
vt 0.750000 0.250000
vt 0.750000 0.750000
vt 0.400000 0.300000
vt 0.850000 0.375000
vt 0.850000 0.625000
vt 0.150000 0.700000
vt 0.000000 0.300000
vt 0.000000 0.700000
vt 1.000000 0.625000
vt 1.000000 0.625000
vt 0.850000 0.625000
vt 1.000000 0.375000
vt 1.000000 0.375000
vt 0.850000 0.375000
vt 0.625000 0.375000
vt 0.250000 0.250000
vt 0.750000 0.250000
vt 0.375000 0.625000
vt 0.375000 0.375000
vt 0.750000 0.750000
vt 0.250000 0.750000
vt 1.000000 0.250000
vt 0.500000 0.125000
vt 0.500000 0.875000
vt 1.000000 0.750000
vt 0.400000 0.300000
vt 1.000000 0.250000
vt 1.000000 0.000000
vt 1.000000 0.250000
vt 0.000000 0.000000
vt 1.000000 0.250000
vt 1.000000 0.000000
vt 0.150000 0.700000
vt 0.850000 0.375000
vt 0.850000 0.850000
vt 0.000000 0.850000
vt 0.850000 0.150000
vt 0.850000 0.150000
vt 0.850000 0.850000
vt 0.000000 0.700000
vt 0.400000 0.700000
vt 0.000000 0.300000
vt 0.000000 0.150000
vt 0.375000 0.375000
vt 0.150000 0.375000
vt 0.250000 0.750000
vt 0.625000 0.625000
vt 1.000000 0.375000
vt 1.000000 0.625000
vn 0.0000 1.0000 0.0000
vn 0.0000 0.2425 -0.9701
vn 0.0000 -1.0000 0.0000
vn -1.0000 0.0000 0.0000
vn 0.0000 0.2425 0.9701
vn 1.0000 0.0000 -0.0000
vn 0.0000 -0.2559 -0.9667
vn 0.0000 -0.2559 0.9667
vn 0.0000 0.0000 1.0000
vn 0.0000 0.0000 -1.0000
usemtl Material
s off
f 31/1/1 3/2/1 1/3/1
f 30/4/2 7/5/2 8/6/2
f 34/7/3 19/8/3 33/9/3
f 1/10/4 4/11/4 2/12/4
f 31/13/5 1/14/5 2/12/5
f 15/15/6 20/16/6 16/17/6
f 24/18/3 14/19/3 12/20/3
f 12/20/3 15/21/3 10/22/3
f 10/22/3 16/23/3 9/24/3
f 9/24/3 13/25/3 11/26/3
f 17/27/3 35/28/3 18/29/3
f 7/30/6 5/31/6 28/32/6
f 16/33/7 34/34/7 36/35/7
f 14/36/8 35/37/8 33/38/8
f 24/39/9 26/40/9 22/41/9
f 23/42/3 13/25/3 21/43/3
f 28/44/3 25/45/3 26/40/3
f 29/46/1 7/30/1 30/47/1
f 25/48/4 17/49/4 18/50/4
f 21/51/10 27/52/10 23/53/10
f 34/34/10 40/54/10 36/35/10
f 33/38/6 39/55/6 34/56/6
f 35/37/9 38/57/9 33/38/9
f 36/35/4 37/58/4 35/59/4
f 38/60/1 30/61/1 32/62/1
f 40/63/1 30/61/1 37/64/1
f 40/63/1 31/65/1 29/66/1
f 31/65/1 38/60/1 32/62/1
f 6/67/9 41/68/9 11/26/9
f 12/20/9 42/69/9 8/70/9
f 5/31/9 6/67/9 11/26/9
f 11/26/6 23/42/6 27/71/6
f 5/31/6 11/26/6 27/71/6
f 12/20/9 8/70/9 7/30/9
f 28/32/6 24/18/6 12/20/6
f 5/31/6 27/71/6 28/32/6
f 12/20/6 7/30/6 28/32/6
f 8/6/2 4/11/2 32/72/2
f 4/11/2 3/73/2 32/72/2
f 32/72/2 30/4/2 8/6/2
f 1/10/4 3/74/4 4/11/4
f 2/12/5 6/75/5 29/76/5
f 6/75/5 5/77/5 29/76/5
f 29/76/5 31/13/5 2/12/5
f 24/18/3 22/78/3 14/19/3
f 12/20/3 14/19/3 15/21/3
f 10/22/3 15/21/3 16/23/3
f 9/24/3 16/23/3 13/25/3
f 24/39/9 28/44/9 26/40/9
f 23/42/3 11/26/3 13/25/3
f 28/44/3 27/52/3 25/45/3
f 21/51/10 25/45/10 27/52/10
f 15/15/6 19/79/6 20/16/6
f 17/80/7 13/81/7 36/35/7
f 13/81/7 16/33/7 36/35/7
f 16/33/7 20/82/7 34/34/7
f 19/83/8 15/15/8 33/38/8
f 15/15/8 14/36/8 33/38/8
f 14/36/8 18/84/8 35/37/8
f 14/36/4 22/85/4 26/86/4
f 25/48/4 21/87/4 13/88/4
f 18/50/4 14/36/4 26/86/4
f 25/48/4 13/88/4 17/49/4
f 18/50/4 26/86/4 25/48/4
f 34/7/3 20/89/3 19/8/3
f 17/27/3 36/90/3 35/28/3
f 31/1/1 32/91/1 3/2/1
f 29/46/1 5/31/1 7/30/1
f 38/60/1 37/64/1 30/61/1
f 40/63/1 29/66/1 30/61/1
f 40/63/1 39/92/1 31/65/1
f 31/65/1 39/92/1 38/60/1
f 34/34/10 39/93/10 40/54/10
f 33/38/6 38/57/6 39/55/6
f 35/37/9 37/94/9 38/57/9
f 36/35/4 40/54/4 37/58/4
